<svg width="37" height="37" viewBox="0 0 37 37" fill="none" xmlns="http://www.w3.org/2000/svg">
<path d="M29.2917 16.9583H7.70833C6.00546 16.9583 4.625 18.3388 4.625 20.0417V30.8333C4.625 32.5362 6.00546 33.9167 7.70833 33.9167H29.2917C30.9945 33.9167 32.375 32.5362 32.375 30.8333V20.0417C32.375 18.3388 30.9945 16.9583 29.2917 16.9583Z" stroke="white" stroke-width="3" stroke-linecap="round" stroke-linejoin="round"/>
<path d="M10.7917 16.9583V10.7917C10.7917 8.74728 11.6038 6.78664 13.0494 5.34105C14.495 3.89545 16.4556 3.08333 18.5 3.08333C20.5444 3.08333 22.505 3.89545 23.9506 5.34105C25.3962 6.78664 26.2083 8.74728 26.2083 10.7917V16.9583" stroke="white" stroke-width="3" stroke-linecap="round" stroke-linejoin="round"/>
</svg>
